HIERARCHY
ROOT Hips
{
  OFFSET 0 0 0
  CHANNELS 6 Xposition Yposition Zposition Zrotation Yrotation Xrotation
  JOINT LeftThigh
  {
    OFFSET 8.409438 0 -5.917753
    CHANNELS 3 Zrotation Yrotation Xrotation
    JOINT LeftLeg
    {
      OFFSET 0 0 -42.358652
      CHANNELS 3 Zrotation Yrotation Xrotation
      JOINT LeftFoot
      {
        OFFSET 0 0 -39.357303
        CHANNELS 3 Zrotation Yrotation Xrotation
      }
    }
  }
  JOINT RightThigh
  {
    OFFSET -8.409438 0 -5.917753
    CHANNELS 3 Zrotation Yrotation Xrotation
    JOINT RightLeg
    {
      OFFSET 0 0 -42.358652
      CHANNELS 3 Zrotation Yrotation Xrotation
      JOINT RightFoot
      {
        OFFSET 0 0 -39.357303
        CHANNELS 3 Zrotation Yrotation Xrotation
      }
    }
  }
  JOINT SpineLow
  {
    OFFSET 0 0 4.719101
    CHANNELS 3 Zrotation Yrotation Xrotation
    JOINT SpineMid
    {
      OFFSET 0 0 12.899191
      CHANNELS 3 Zrotation Yrotation Xrotation
      JOINT Chest
      {
        OFFSET 0 0 12.899191
        CHANNELS 3 Zrotation Yrotation Xrotation
        JOINT LeftShoulder
        {
          OFFSET 7.550562 1.41573 9.438202
          CHANNELS 3 Zrotation Yrotation Xrotation
          JOINT LeftArm
          {
            OFFSET 9.155056 0 4.247191
            CHANNELS 3 Zrotation Yrotation Xrotation
            JOINT LeftForearm
            {
              OFFSET 0 0 25.771955
              CHANNELS 3 Zrotation Yrotation Xrotation
              JOINT LeftHand
              {
                OFFSET 0 0 25.197169
                CHANNELS 3 Zrotation Yrotation Xrotation
              }
            }
          }
        }
        JOINT RightShoulder
        {
          OFFSET -7.550562 1.41573 9.438202
          CHANNELS 3 Zrotation Yrotation Xrotation
          JOINT RightArm
          {
            OFFSET -9.155056 0 4.247191
            CHANNELS 3 Zrotation Yrotation Xrotation
            JOINT RightForearm
            {
              OFFSET 0 0 -25.771955
              CHANNELS 3 Zrotation Yrotation Xrotation
              JOINT RightHand
              {
                OFFSET 0 0 -25.197169
                CHANNELS 3 Zrotation Yrotation Xrotation
              }
            }
          }
        }
        JOINT Neck
        {
          OFFSET 0 0 15.101124
          CHANNELS 3 Zrotation Yrotation Xrotation
          JOINT Head
          {
            OFFSET 0 0 11.325843
            CHANNELS 3 Zrotation Yrotation Xrotation
            End Site
            {
              OFFSET 0 0 14.157303
            }
          }
        }
      }
    }
  }
}
MOTION
Frames: 17
Frame Time: 0.0
0.0  89.887642  0.0  -1.315949  17.824479  -126.752846  4.607076  -7.551146  15.093676  -19.738576  14.231619  32.846598  -5.475802  -0.705877  0.751317  -3.117457  12.564922  -69.737637  -19.841385  9.575575  10.766352  2.524623  -9.03982  4.935934  -0.131319  -1.708039  5.126455  -0.719588  -4.616804  14.043049  -0.719588  -4.616804  14.043048  -25.643688  24.886399  5.675357  127.498828  41.424706  -161.060731  -16.084497  -0.752  86.396451  72.076652  -8.241586  16.875385  -8.356347  9.819362  27.715582  30.533736  55.23169  -34.820198  -19.420408  -14.61885  -72.878964  84.897076  11.411649  -15.082653  -28.344234  1.044322  1.359504  -21.260027  0.721963  1.07084  
0.0  89.887642  0.0  -1.522264  18.325524  -127.368938  2.47061  -5.086587  14.858104  -18.236953  13.561786  34.447972  -4.672908  -0.664912  1.318734  -7.72948  4.369947  -74.832137  -7.114856  10.734513  22.781241  -0.208043  -7.755496  4.982901  -0.584463  -1.592061  5.168902  -1.931163  -4.203878  14.184016  -1.931163  -4.203878  14.184015  -23.712265  24.81542  5.890162  124.96455  41.719637  -160.78226  -18.124392  -1.729639  84.558138  71.671528  -7.662056  17.758953  -6.603719  9.554204  28.158728  31.879237  55.994763  -33.890839  -19.452521  -15.004097  -72.994591  84.949735  10.050922  -14.902127  -26.948583  1.459482  1.021576  -20.212839  1.051952  0.832507  
0.0  89.887642  0.0  -1.869859  18.479561  -128.123093  2.917146  -5.084397  15.321783  -17.48054  12.956557  35.624821  -5.679064  -1.269987  1.466924  -10.030321  -2.157665  -80.630765  1.481499  12.785245  35.820309  -0.09335  -7.133445  5.350088  -1.033799  -1.579562  5.035067  -3.143634  -4.080271  13.843929  -3.143634  -4.080271  13.843928  -21.810303  26.162569  6.958566  125.298447  41.675847  -160.848885  -17.877557  -1.987957  84.535635  71.444174  -6.919284  18.798516  -4.926125  9.692656  29.613601  32.781822  56.646216  -32.848979  -18.862622  -15.081121  -73.52127  85.216222  8.517489  -14.755026  -25.561331  2.511819  1.367774  -19.173639  1.830426  1.133246  
0.0  89.887642  0.0  -2.038591  18.327093  -128.427091  4.176633  -6.134478  16.01398  -17.419248  12.394436  35.638881  -7.34785  -1.661357  1.49847  -11.204607  -6.868295  -93.59566  11.073631  13.21398  55.740978  1.473377  -7.005228  6.169066  -1.336238  -1.532664  4.986437  -3.954271  -3.892422  13.724703  -3.954271  -3.892422  13.724702  -20.626696  26.988757  7.243253  125.316156  41.747311  -161.071558  -17.858936  -2.110897  84.781469  71.986877  -6.197401  19.386827  -4.084951  9.265341  29.961276  30.137528  56.130498  -35.771515  -16.505694  -14.478996  -73.3474  86.537965  6.381327  -15.300258  -24.445277  2.907091  1.696188  -18.338232  2.116469  1.390989  
0.0  89.887642  0.0  -1.995792  17.709113  -128.496533  4.326763  -6.699277  16.801957  -16.944646  12.252118  35.011427  -7.902591  -1.643267  1.460285  -11.333838  -10.680957  -94.556801  16.58133  14.05674  64.617094  4.118837  -5.746704  5.433051  -1.380226  -1.522082  5.013491  -4.073265  -3.852758  13.800272  -4.073265  -3.852758  13.800272  -21.079241  27.576057  6.392051  125.253018  41.683685  -161.589794  -17.901568  -2.469887  85.101755  72.546412  -6.019017  19.209225  -4.685388  9.0221  29.418959  28.836857  54.519127  -38.369828  -12.928393  -14.377292  -73.318574  90.985811  2.424864  -14.83743  -24.059472  2.761233  2.010343  -18.050398  1.995428  1.619323  
0.0  89.887642  0.0  -1.738826  16.603739  -128.430242  3.728391  -6.740064  17.299544  -16.482751  12.85183  34.533605  -6.934179  -1.499892  1.224529  -9.605016  -12.844332  -94.571516  21.197725  15.025244  72.673366  6.193706  -4.658313  4.922907  -1.224811  -1.535048  5.051663  -3.655082  -3.918243  13.897138  -3.655082  -3.918243  13.897137  -22.183045  28.151783  6.077179  125.33634  42.255775  -161.564419  -17.97767  -3.08817  85.479336  72.98577  -6.210519  18.730667  -6.223369  9.283905  28.568128  30.455874  53.407377  -37.903285  -10.284293  -14.629384  -74.447704  95.560591  -2.07286  -14.391669  -24.226839  2.427503  2.428277  -18.177372  1.727552  1.92089  
0.0  89.887642  0.0  -1.334497  15.132019  -128.000842  3.528015  -6.829534  17.205397  -16.690561  13.719658  34.106109  -5.549981  -1.121696  0.949419  -6.308819  -11.338071  -95.892871  22.589588  16.010455  82.1451  8.300756  -3.929089  4.317538  -0.982822  -1.56156  5.034703  -3.000984  -4.042022  13.83883  -3.000985  -4.042022  13.83883  -23.48408  28.711547  5.781272  125.898954  43.07466  -161.152278  -18.124929  -3.734795  86.016041  73.064268  -6.50815  18.447058  -8.059191  9.917538  27.310513  34.773757  52.949381  -34.56985  -11.170748  -14.53321  -76.12672  98.766054  -3.903096  -15.647388  -24.550317  2.216521  2.835529  -18.421171  1.551407  2.219799  
0.0  89.887642  0.0  -0.852084  13.501562  -127.326601  4.325315  -7.324698  16.717202  -17.378225  14.546399  33.810892  -4.608333  -0.841285  0.755608  -2.489765  -8.752552  -94.697569  21.889665  17.549798  89.102693  9.983269  -3.257696  3.820906  -0.820101  -1.514787  4.932816  -2.542137  -3.953155  13.548017  -2.542136  -3.953155  13.548017  -24.055874  29.282942  5.827519  127.183115  44.144355  -160.615888  -18.538296  -3.726188  87.159458  73.005321  -6.685002  18.61984  -9.210592  10.453589  26.100676  41.204178  52.940324  -29.050162  -12.551727  -14.748144  -78.002862  100.050452  -3.110139  -14.689741  -24.385854  2.248114  3.389076  -18.300152  1.553744  2.636294  
0.0  89.887642  0.0  -0.34037  11.857254  -126.574061  5.593415  -7.879253  16.010718  -17.378123  15.109478  33.943093  -4.391567  -0.894184  0.725351  1.352961  -3.928897  -91.80614  17.792941  19.620788  94.730588  11.237134  -2.115085  3.206543  -0.774655  -1.32957  4.728651  -2.369624  -3.466637  12.977453  -2.369624  -3.466637  12.977452  -23.347254  29.595386  6.940171  129.099246  45.47821  -159.674136  -19.431306  -2.034187  88.401646  73.546842  -6.887993  19.40406  -9.452314  10.539793  25.309621  47.969963  52.609285  -23.108597  -14.146877  -13.148794  -79.212132  97.448412  -0.621379  -13.95248  -23.543562  2.407869  4.304536  -17.673044  1.642949  3.326676  
0.0  89.887642  0.0  0.068441  10.154537  -125.63601  6.658695  -8.167398  14.917368  -16.349858  15.122318  34.615552  -4.779152  -1.035561  0.710775  4.207486  1.380118  -88.646844  12.307791  20.72842  99.423178  11.898445  -0.682922  3.037563  -0.699293  -1.129785  4.474807  -2.113882  -2.946537  12.270502  -2.113882  -2.946537  12.270502  -22.730669  29.519578  8.337567  131.532236  46.845004  -158.075912  -20.449459  -0.403119  90.808004  73.52603  -5.933575  20.206931  -9.853168  10.246921  24.401072  54.347881  51.918553  -17.531368  -16.028256  -9.927134  -79.573783  91.742786  2.361702  -14.851487  -22.644294  2.519828  5.233222  -17.003513  1.698759  4.024332  
0.0  89.887642  0.0  0.363453  8.282493  -124.40192  7.635526  -8.336016  13.43857  -15.168793  14.963509  35.401415  -5.042169  -1.175509  0.707324  5.160819  5.045779  -86.156945  7.97905  19.501289  103.728311  12.008968  1.070823  3.322434  -0.529262  -0.895624  4.293833  -1.600784  -2.345295  11.760306  -1.600784  -2.345295  11.760307  -22.902114  28.416837  8.996787  134.455503  48.065862  -155.902706  -22.735753  1.845236  91.939677  74.005401  -5.658408  22.927255  -10.601593  9.23717  22.90283  59.661954  51.083942  -12.980408  -17.788231  -8.753916  -79.662975  88.279464  4.001506  -15.991516  -21.874048  2.060253  5.82208  -16.425147  1.338846  4.446673  
0.0  89.887642  0.0  0.710251  6.330331  -122.984497  8.446727  -8.330593  11.758039  -14.290201  14.961818  36.017953  -5.045281  -1.266845  0.69475  5.273777  5.660289  -84.497188  7.125958  17.50912  108.76171  12.213178  3.013537  3.475233  -0.414364  -0.742801  4.13149  -1.255826  -1.952833  11.308415  -1.255826  -1.952833  11.308416  -23.300241  27.723688  8.828297  137.768093  49.288676  -153.389557  -22.578342  4.163857  93.662855  74.979789  -5.601265  23.125894  -11.224509  8.546098  21.267148  63.887877  49.99868  -9.519293  -18.036389  -8.183982  -79.973611  86.854291  4.027301  -15.398954  -20.971282  1.73421  5.975918  -15.745992  1.097119  4.547516  
0.0  89.887642  0.0  1.07709  4.162737  -121.397219  9.073555  -8.298062  9.831135  -13.699909  15.334279  36.403712  -4.368185  -1.21648  0.782864  5.633906  3.320458  -83.153367  9.724759  15.732979  114.414208  12.843203  4.830991  3.260689  1.40735  -0.832793  3.445622  3.720932  -2.470437  9.370111  3.720933  -2.470437  9.370111  -33.132123  27.325018  11.960173  141.348301  50.765564  -150.621403  -22.790459  5.243017  94.903398  74.985401  -5.866039  23.644016  -22.349911  7.549915  23.212198  66.883871  48.765799  -7.439221  -17.419594  -7.444251  -80.037296  86.577582  3.721869  -13.633336  -26.254409  1.263457  7.852683  -19.710128  0.61132  5.956695  
0.0  89.887642  0.0  1.416632  1.883134  -119.624464  9.465496  -8.239467  7.720563  -12.903018  15.798066  36.76465  -3.487403  -1.148287  0.819959  6.650497  -0.200884  -81.434568  13.424282  13.898973  119.655789  13.564915  6.345265  3.002502  2.249841  0.14626  3.592287  6.155822  0.064925  9.822992  6.155822  0.064925  9.822992  -35.961237  20.257613  13.097677  144.91514  52.459453  -147.536266  -22.688274  6.093197  96.284248  74.785925  -6.071155  23.65151  -26.172193  0.384406  22.54387  70.852576  47.018659  -5.744359  -17.711652  -5.426456  -78.994485  86.646803  3.381628  -11.90418  -26.92843  -3.105634  8.559282  -20.152758  -2.713554  6.295382  
0.0  89.887642  0.0  1.605412  -0.5414  -117.919276  9.653666  -8.41948  5.638076  -11.557882  16.209562  37.263119  -2.884589  -1.118878  0.786154  8.726528  -3.159513  -78.996825  15.705387  12.467267  124.320986  13.97762  7.824157  2.736664  2.394384  0.401519  3.109301  6.584243  0.786915  8.529503  6.584244  0.786915  8.529504  -35.334849  20.013953  15.208909  148.903688  54.26338  -144.083029  -22.788922  7.091968  97.446599  74.796113  -6.285861  23.681733  -26.646145  -0.109179  24.359923  73.342281  46.042493  -4.349387  -17.322807  -4.148564  -78.411505  86.509206  2.956431  -11.01854  -26.00017  -3.511383  9.563531  -19.444918  -3.048089  7.035931  
0.0  89.887642  0.0  1.656744  -2.989837  -116.313307  9.743041  -8.849067  3.587536  -9.731381  16.557696  37.904521  -2.466104  -1.092901  0.794418  11.478676  -4.830163  -75.663109  15.701067  11.52939  127.960457  13.41252  9.389304  2.632749  2.223682  0.378001  2.929601  6.113967  0.761546  8.035067  6.113967  0.761546  8.035067  -34.158791  20.513152  14.408147  152.98743  55.967305  -140.344899  -22.867751  8.267045  98.343014  75.233167  -6.414833  23.572683  -25.558214  0.547512  23.597227  76.451275  45.209839  -2.359015  -17.368365  -3.115592  -77.582448  85.992721  2.506462  -10.824433  -24.100675  -3.415775  9.009572  -18.024583  -2.923452  6.632543  
0.0  89.887642  0.0  1.604735  -5.4149  -114.59591  9.865229  -9.523519  1.246051  -7.616739  16.883872  38.8417  -2.350987  -1.088222  0.745011  14.010346  -6.578943  -71.678315  15.880121  11.350818  130.358804  12.26103  10.861768  2.72304  -0.385526  0.588047  4.057164  -0.952105  1.666686  11.082312  -0.952105  1.666686  11.082312  -20.97138  18.931713  4.052041  157.500647  57.613208  -136.280594  -23.08965  9.597549  99.089318  74.552991  -6.591666  23.589656  -9.196169  0.779938  13.739977  80.039841  44.744415  0.003532  -17.698041  -2.781704  -76.547681  85.253941  2.017389  -10.648872  -13.018384  -3.911572  3.370748  -9.738755  -3.007183  2.444938  
